<svg version="1.1" preserveAspectRatio="none" xmlns="http://www.w3.org/2000/svg" width="500" height="500" viewBox="0 0 500 500"><rect width="100%" height="100%" fill="#FFFFFF" fill-opacity="1"/><svg viewBox="452.401 251.4163 386.7801 266.343" width="333" height="229.3091578392994" x="83.5px" y="135.3454px" xmlns="http://www.w3.org/2000/svg" xmlns:xlink="http://www.w3.org/1999/xlink" preserveAspectRatio="none"><defs></defs><style>.companyName {fill:#0000FF;fill-opacity:1;}.icon1 {fill:#0000FF;fill-opacity:1;}.icon2 {fill:#A9FF94;fill-opacity:1;}.icon3 {fill:#000084;fill-opacity:1;}.icon3-str {stroke:#000084;stroke-opacity:1;}</style><g opacity="1" transform="rotate(0 452.401 457.7593)">
<svg width="386.7801" height="60" x="452.401" y="457.7593" version="1.1" preserveAspectRatio="none" viewBox="3.32 -28 182.56 28.32">
  <g transform="matrix(1 0 0 1 0 0)" class="companyName"><path id="id-D6z1nYkh8" d="M3.32 0L3.32-28L9.80-28L9.80 0L3.32 0Z M33.16-21.84Q37.16-21.84 39.62-19.44Q42.08-17.04 42.08-12.32L42.08-12.32L42.08 0L35.84 0L35.84-11.36Q35.84-13.92 34.72-15.18Q33.60-16.44 31.48-16.44L31.48-16.44Q29.12-16.44 27.72-14.98Q26.32-13.52 26.32-10.64L26.32-10.64L26.32 0L20.08 0L20.08-21.52L26.04-21.52L26.04-19Q27.28-20.36 29.12-21.10Q30.96-21.84 33.16-21.84L33.16-21.84Z M64-5.44L65.68-1.04Q64.76-0.36 63.42-0.02Q62.08 0.32 60.60 0.32L60.60 0.32Q56.76 0.32 54.66-1.64Q52.56-3.60 52.56-7.40L52.56-7.40L52.56-16.24L49.24-16.24L49.24-21.04L52.56-21.04L52.56-26.28L58.80-26.28L58.80-21.04L64.16-21.04L64.16-16.24L58.80-16.24L58.80-7.48Q58.80-6.12 59.50-5.38Q60.20-4.64 61.48-4.64L61.48-4.64Q62.96-4.64 64-5.44L64-5.44Z M93.68-10.68Q93.68-10.56 93.56-9L93.56-9L77.28-9Q77.72-7 79.36-5.84Q81-4.68 83.44-4.68L83.44-4.68Q85.12-4.68 86.42-5.18Q87.72-5.68 88.84-6.76L88.84-6.76L92.16-3.16Q89.12 0.32 83.28 0.32L83.28 0.32Q79.64 0.32 76.84-1.10Q74.04-2.52 72.52-5.04Q71-7.56 71-10.76L71-10.76Q71-13.92 72.50-16.46Q74-19 76.62-20.42Q79.24-21.84 82.48-21.84L82.48-21.84Q85.64-21.84 88.20-20.48Q90.76-19.12 92.22-16.58Q93.68-14.04 93.68-10.68L93.68-10.68ZM82.52-17.12Q80.40-17.12 78.96-15.92Q77.52-14.72 77.20-12.64L77.20-12.64L87.80-12.64Q87.48-14.68 86.04-15.90Q84.60-17.12 82.52-17.12L82.52-17.12Z M107.88-18.68Q109-20.24 110.90-21.04Q112.80-21.84 115.28-21.84L115.28-21.84L115.28-16.08Q114.24-16.16 113.88-16.16L113.88-16.16Q111.20-16.16 109.68-14.66Q108.16-13.16 108.16-10.16L108.16-10.16L108.16 0L101.92 0L101.92-21.52L107.88-21.52L107.88-18.68Z M136.16-21.84Q140.16-21.84 142.62-19.44Q145.08-17.04 145.08-12.32L145.08-12.32L145.08 0L138.84 0L138.84-11.36Q138.84-13.92 137.72-15.18Q136.60-16.44 134.48-16.44L134.48-16.44Q132.12-16.44 130.72-14.98Q129.32-13.52 129.32-10.64L129.32-10.64L129.32 0L123.08 0L123.08-21.52L129.04-21.52L129.04-19Q130.28-20.36 132.12-21.10Q133.96-21.84 136.16-21.84L136.16-21.84Z M155.24 0L155.24-28L161.72-28L161.72 0L155.24 0Z M184.20-5.44L185.88-1.04Q184.96-0.36 183.62-0.02Q182.28 0.32 180.80 0.32L180.80 0.32Q176.96 0.32 174.86-1.64Q172.76-3.60 172.76-7.40L172.76-7.40L172.76-16.24L169.44-16.24L169.44-21.04L172.76-21.04L172.76-26.28L179.00-26.28L179.00-21.04L184.36-21.04L184.36-16.24L179.00-16.24L179.00-7.48Q179.00-6.12 179.70-5.38Q180.40-4.64 181.68-4.64L181.68-4.64Q183.16-4.64 184.20-5.44L184.20-5.44Z"/></g>
</svg>
</g><g opacity="1" transform="rotate(0 568.4351 251.4163)">
<svg width="154.712" height="166.343" x="568.4351" y="251.4163" version="1.1" preserveAspectRatio="none" viewBox="25.25 19.49700164794922 149.63099670410156 160.8800048828125">
  <g transform="matrix(1 0 0 1 0 0)" class="icon1"><g><path d="M174.881 118.377c-.021-16.893-12.823-31.028-29.631-32.718V28.377h-36.593l-3.775-8.88H65.619l-3.776 8.88H25.25v152h120V151.1c16.809-1.691 29.612-15.829 29.631-32.723zM69.587 25.5h31.326l4.8 11.294H64.786L69.587 25.5zM31.25 174.377v-140h28.042l-3.578 8.414h59.071l-3.577-8.414h28.042V85.62c-18.091 1.514-31.53 17.407-30.016 35.499 1.338 15.991 14.026 28.678 30.016 30.016v23.242h-108zM142 145.259c-14.846 0-26.881-12.035-26.881-26.881S127.154 91.497 142 91.497s26.88 12.034 26.881 26.88c-.017 14.839-12.042 26.865-26.881 26.882z"></path><path d="M138.036 122.6l-7.02-5.7-3.784 4.656 8.871 7.207a3.385 3.385 0 0 0 4.594-.28l16.336-16.9-4.314-4.17-14.683 15.187z"></path><path d="M112 72.503v5.994H44v-5.994h68z"></path><path d="M88.909 102.253v6H44v-6h44.909z"></path><path d="M75.091 130.503v7H44v-7h31.091z"></path></g></g>
</svg>
</g></svg></svg>